<svg xmlns="http://www.w3.org/2000/svg" xmlns:xlink="http://www.w3.org/1999/xlink" width="100%" height="100%" version="1.1" viewBox="0 0 60 60" xml:space="preserve" style="fill-rule:evenodd;clip-rule:evenodd;stroke-linecap:round;stroke-linejoin:round;stroke-miterlimit:1.5"><path d="M-3.5,63.5L64,-4" style="fill:none;stroke:#000;stroke-width:1px"/><g><path d="M-3.5,63.5L64,-4" style="fill:none;stroke:#000;stroke-width:1px" transform="matrix(1,0,0,1,0,5)"/></g><g><path d="M-3.5,63.5L64,-4" style="fill:none;stroke:#000;stroke-width:1px" transform="matrix(1,0,0,1,0,10)"/></g><g><path d="M-3.5,63.5L64,-4" style="fill:none;stroke:#000;stroke-width:1px" transform="matrix(1,0,0,1,0,15)"/></g><g><path d="M-3.5,63.5L64,-4" style="fill:none;stroke:#000;stroke-width:1px" transform="matrix(1,0,0,1,0,20)"/></g><g><path d="M-3.5,63.5L64,-4" style="fill:none;stroke:#000;stroke-width:1px" transform="matrix(1,0,0,1,0,25)"/></g><g><path d="M-3.5,63.5L64,-4" style="fill:none;stroke:#000;stroke-width:1px" transform="matrix(1,0,0,1,0,30)"/></g><g><path d="M-3.5,63.5L64,-4" style="fill:none;stroke:#000;stroke-width:1px" transform="matrix(1,0,0,1,0,35)"/></g><g><path d="M-3.5,63.5L64,-4" style="fill:none;stroke:#000;stroke-width:1px" transform="matrix(1,0,0,1,0,40)"/></g><g><path d="M-3.5,63.5L64,-4" style="fill:none;stroke:#000;stroke-width:1px" transform="matrix(1,0,0,1,0,45)"/></g><g><path d="M-3.5,63.5L64,-4" style="fill:none;stroke:#000;stroke-width:1px" transform="matrix(1,0,0,1,0,50)"/></g><g><path d="M-3.5,63.5L64,-4" style="fill:none;stroke:#000;stroke-width:1px" transform="matrix(1,0,0,1,0,55)"/></g><g><path d="M-3.5,63.5L64,-4" style="fill:none;stroke:#000;stroke-width:1px" transform="matrix(1,0,0,1,0,60)"/></g><g><path d="M-3.5,63.5L64,-4" style="fill:none;stroke:#000;stroke-width:1px" transform="matrix(1,0,0,1,0,-5)"/></g><g><path d="M-3.5,63.5L64,-4" style="fill:none;stroke:#000;stroke-width:1px" transform="matrix(1,0,0,1,0,-10)"/></g><g><path d="M-3.5,63.5L64,-4" style="fill:none;stroke:#000;stroke-width:1px" transform="matrix(1,0,0,1,0,-15)"/></g><g><path d="M-3.5,63.5L64,-4" style="fill:none;stroke:#000;stroke-width:1px" transform="matrix(1,0,0,1,0,-20)"/></g><g><path d="M-3.5,63.5L64,-4" style="fill:none;stroke:#000;stroke-width:1px" transform="matrix(1,0,0,1,0,-25)"/></g><g><path d="M-3.5,63.5L64,-4" style="fill:none;stroke:#000;stroke-width:1px" transform="matrix(1,0,0,1,0,-30)"/></g><g><path d="M-3.5,63.5L64,-4" style="fill:none;stroke:#000;stroke-width:1px" transform="matrix(1,0,0,1,0,-35)"/></g><g><path d="M-3.5,63.5L64,-4" style="fill:none;stroke:#000;stroke-width:1px" transform="matrix(1,0,0,1,0,-40)"/></g><g><path d="M-3.5,63.5L64,-4" style="fill:none;stroke:#000;stroke-width:1px" transform="matrix(1,0,0,1,0,-45)"/></g><g><path d="M-3.5,63.5L64,-4" style="fill:none;stroke:#000;stroke-width:1px" transform="matrix(1,0,0,1,0,-50)"/></g><g><path d="M-3.5,63.5L64,-4" style="fill:none;stroke:#000;stroke-width:1px" transform="matrix(1,0,0,1,0,-55)"/></g><g><path d="M-3.5,63.5L64,-4" style="fill:none;stroke:#000;stroke-width:1px" transform="matrix(1,0,0,1,0,-60)"/></g></svg>